<svg xmlns="http://www.w3.org/2000/svg" width="726.313" height="151.579" viewBox="0 0 2905.25 606.315">
  <defs>
    <style>
      .cls-1 {
        fill: #fff;
        fill-rule: evenodd;
      }
    </style>
  </defs>
  <path id="Shadowify_copy" data-name="Shadowify copy" class="cls-1" d="M2040.58,1224.02q45.63,24.27,118.45,24.27,78.39,0,121.82-32.03t43.44-92.86q0-42.12-24.57-72.39t-87.75-57.762q-54.99-24.273-69.9-39.484t-14.92-33.636q0-23.1,21.5-36.267t56.3-13.162q59.085,0,100.91,28.663V819.515q-37.725-16.377-103.25-16.379-73.11,0-118.16,32.9t-45.04,91.108q0,40.362,24.13,70.341t77.65,53.961q62.88,26.91,79.27,43.29,16.365,16.38,16.37,35.97,0,22.53-19.59,36.42t-59.37,13.89q-66.1,0-117.29-42.41v85.41Zm630.52-172.28q0-125.755-104.13-125.762-61.41,0-96.51,54.694h-0.88V785.88h-81.6v454.81h81.6v-175.2q0-33.045,17.99-54.55t46.65-21.494q55.56,0,55.57,76.044v175.2h81.31V1051.74Zm84.75-33.92q48.255-34.226,102.95-34.223,57.315,0,57.33,58.793l-85.7,11.69q-104.715,14.04-104.71,102.08,0,42.12,26.03,67.12,26.025,25.02,70.49,25.01,61.125,0,92.13-52.94h1.46v45.34h77.8V1052.33q0-126.352-124.59-126.352-26.325,0-59.38,7.458t-53.81,19.45v64.934Zm160.28,74.58v23.4q0,31.29-19.01,51.91t-48.26,20.62q-21.36,0-33.93-11.4-12.585-11.415-12.58-29.54,0-40.365,52.65-47.09Zm444.2-306.52h-81.31V970.727h-1.46q-24.855-44.75-85.4-44.749-62.295,0-101.2,46.066t-38.9,121.816q0,71.37,34.8,112.9t92.72,41.53q65.22,0,97.98-52.94h1.46v45.34h81.31V785.88Zm-80.14,308.27q0,39.495-20.47,64.93-20.475,25.455-52.65,25.45-33.33,0-52.93-24.42t-19.6-68.59q0-47.085,20.33-74.58t55.42-27.494q30.12,0,50.02,21.494,19.875,21.51,19.88,53.97v29.24Zm187.12,111q43.29,43.14,116.99,43.14,75.165,0,119.19-44.89t44.02-119.78q0-71.94-42.56-114.794t-115.97-42.848q-76.05,0-120.5,43.726t-44.46,119.186Q3424.02,1162.015,3467.31,1205.15Zm60.25-189.53q21.06-26.168,59.08-26.174,77.805,0,77.8,95.934,0,99.15-77.5,99.15-80.445,0-80.44-96.81Q3506.5,1041.8,3527.56,1015.62Zm634.91-82.33-46.51,210a257.583,257.583,0,0,0-4.97,32.47h-2.05q-2.34-23.985-4.38-32.47l-51.77-210h-77.22l-58.49,208.54a194.839,194.839,0,0,0-5.27,33.34h-1.75a201.25,201.25,0,0,0-4.68-32.17l-48.26-209.71h-83.65l88.62,307.4h84.23l54.41-192.46q4.08-13.44,5.85-35.39h1.75q1.17,21.945,4.97,35.98l50.6,191.87h85.41l89.5-307.4h-76.34Zm127.74-69.9q13.455,12.875,34.22,12.869t34.37-12.576q13.6-12.573,13.6-31.588t-13.75-31.442q-13.755-12.427-34.22-12.43-21.06,0-34.36,12.576-13.32,12.579-13.31,31.3A41.673,41.673,0,0,0,4290.21,863.387Zm74.29,377.3V933.29h-81.31v307.4h81.31Zm267.55-456.273q-16.665-5.552-44.46-5.557-53.52,0-85.99,30.711t-32.46,82.479v41.24h-52.06V995.3h52.06V1240.69h81.31V995.3h70.49V933.29h-70.49V896.437q0-54.106,47.38-54.109a84.432,84.432,0,0,1,34.22,7.312V784.417ZM4863.33,933.29l-66.68,202.1a238.654,238.654,0,0,0-8.78,35.39h-1.17q-4.965-26.31-7.89-35.97l-64.64-201.52h-90.38l123.43,306.81-18.72,43.87q-15.8,37.44-52.35,37.44a79.548,79.548,0,0,1-38.03-9.36v66.4q20.19,6.72,49.43,6.72,84.525,0,127.52-112.6l129.57-339.28h-81.31Z" transform="translate(-2039.41 -778.875)"/>
</svg>
